<?xml version="1.0" encoding="UTF-8" standalone="no"?>
<!DOCTYPE svg PUBLIC "-//W3C//DTD SVG 1.1//EN" "http://www.w3.org/Graphics/SVG/1.1/DTD/svg11.dtd">
<svg width="100%" height="100%" viewBox="0 0 614 148" version="1.1" xmlns="http://www.w3.org/2000/svg" xmlns:xlink="http://www.w3.org/1999/xlink" xml:space="preserve" xmlns:serif="http://www.serif.com/" style="fill-rule:evenodd;clip-rule:evenodd;stroke-linejoin:round;stroke-miterlimit:2;">
    <g transform="matrix(1,0,0,1,-99,-76)">
        <g id="Logo" transform="matrix(1,0,0,1,-6.40449,0)">
            <g id="scooter_24dp_E8EAED_FILL0_wght400_GRAD0_opsz24.svg" transform="matrix(6.16637,0,0,6.16637,644.452,150)">
                <g transform="matrix(1,0,0,1,-12,-12)">
                    <path d="M19,18C19.283,18 19.521,17.904 19.713,17.713C19.904,17.521 20,17.283 20,17C20,16.717 19.904,16.479 19.713,16.288C19.521,16.096 19.283,16 19,16C18.717,16 18.479,16.096 18.288,16.288C18.096,16.479 18,16.717 18,17C18,17.283 18.096,17.521 18.288,17.713C18.479,17.904 18.717,18 19,18ZM19,20C18.167,20 17.458,19.708 16.875,19.125C16.292,18.542 16,17.833 16,17C16,16.167 16.292,15.458 16.875,14.875C17.458,14.292 18.167,14 19,14C19.833,14 20.542,14.292 21.125,14.875C21.708,15.458 22,16.167 22,17C22,17.833 21.708,18.542 21.125,19.125C20.542,19.708 19.833,20 19,20ZM5,18C5.283,18 5.521,17.904 5.713,17.713C5.904,17.521 6,17.283 6,17C6,16.717 5.904,16.479 5.713,16.288C5.521,16.096 5.283,16 5,16C4.717,16 4.479,16.096 4.288,16.288C4.096,16.479 4,16.717 4,17C4,17.283 4.096,17.521 4.288,17.713C4.479,17.904 4.717,18 5,18ZM5,20C4.167,20 3.458,19.708 2.875,19.125C2.292,18.542 2,17.833 2,17C2,16.167 2.292,15.458 2.875,14.875C3.458,14.292 4.167,14 5,14C5.633,14 6.208,14.183 6.725,14.55C7.242,14.917 7.608,15.4 7.825,16L13.1,16C13.283,14.85 13.754,13.854 14.513,13.012C15.271,12.171 16.2,11.583 17.3,11.25L15.9,5L12,5L12,3L15.9,3C16.367,3 16.783,3.142 17.15,3.425C17.517,3.708 17.75,4.083 17.85,4.55L19.75,13L19,13C17.9,13 16.958,13.392 16.175,14.175C15.392,14.958 15,15.9 15,17L15,18L7.825,18C7.608,18.6 7.242,19.083 6.725,19.45C6.208,19.817 5.633,20 5,20Z" style="fill:white;fill-rule:nonzero;"/>
                </g>
            </g>
            <g transform="matrix(1,0,0,1,63.7124,37.9935)">
                <text x="37.627px" y="153.266px" style="font-family:'Magneto-Bold', 'Magneto', fantasy;font-weight:700;font-stretch:semi-expanded;font-size:125px;fill:white;">Scoots</text>
            </g>
        </g>
    </g>
</svg>
